<svg width="93" height="87" viewBox="0 0 93 87" fill="none" xmlns="http://www.w3.org/2000/svg">
<circle cx="18.8228" cy="35.0108" r="18.8228" fill="#FBBB01"/>
<circle cx="46.6808" cy="18.8228" r="18.8228" fill="#FBBB01"/>
<ellipse cx="46.8689" cy="47.0572" rx="22.7756" ry="20.7051" fill="#FBBB01"/>
<circle cx="65.5035" cy="67.7623" r="18.8228" fill="#FBBB01"/>
<circle cx="27.858" cy="67.7623" r="18.8228" fill="#FBBB01"/>
<circle cx="74.1622" cy="35.0108" r="18.8228" fill="#FBBB01"/>
<path d="M37.6455 42.9163C37.6455 42.9163 40.963 47.0573 46.4922 47.0573C52.0215 47.0573 55.339 42.9163 55.339 42.9163" stroke="black" stroke-width="1.63378" stroke-linecap="round" stroke-linejoin="round"/>
<path d="M26.7285 35.0107C26.7285 35.0107 28.7755 37.6459 32.1871 37.6459C35.5988 37.6459 37.6458 35.0107 37.6458 35.0107" stroke="black" stroke-width="1.63378" stroke-linecap="round" stroke-linejoin="round"/>
<path d="M55.3394 35.0107C55.3394 35.0107 57.3863 37.6459 60.798 37.6459C64.2096 37.6459 66.2566 35.0107 66.2566 35.0107" stroke="black" stroke-width="1.63378" stroke-linecap="round" stroke-linejoin="round"/>
<ellipse cx="27.9831" cy="41.1953" rx="4.22641" ry="1.95567" transform="rotate(-1.19689 27.9831 41.1953)" fill="#EB81C4"/>
<ellipse cx="64.8757" cy="41.1953" rx="4.22641" ry="1.95567" transform="rotate(-1.19689 64.8757 41.1953)" fill="#EB81C4"/>
</svg>
